<svg width="286" height="193" viewBox="0 0 286 193" fill="none" xmlns="http://www.w3.org/2000/svg">
<path d="M134.667 28.5296L139.667 33.5296L129.667 43.5296L139.667 53.5296L134.667 58.5296L119.667 43.5296L134.667 28.5296ZM151.333 58.5296L146.333 53.5296L156.333 43.5296L146.333 33.5296L151.333 28.5296L166.333 43.5296L151.333 58.5296ZM173 6.86296H113C111.232 6.86296 109.536 7.56534 108.286 8.81558C107.036 10.0658 106.333 11.7615 106.333 13.5296V66.863C106.333 68.6311 107.036 70.3268 108.286 71.577C109.536 72.8272 111.232 73.5296 113 73.5296H173C174.768 73.5296 176.464 72.8272 177.714 71.577C178.964 70.3268 179.667 68.6311 179.667 66.863V13.5296C179.667 11.7615 178.964 10.0658 177.714 8.81558C176.464 7.56534 174.768 6.86296 173 6.86296ZM173 66.863H113V20.1963H173V66.863Z" fill="#0948B4"/>
<path d="M66.3236 126.652H57.0116L55.4116 131.196H51.6036L59.5716 108.924H63.7956L71.7636 131.196H67.9236L66.3236 126.652ZM65.2996 123.676L61.6836 113.34L58.0356 123.676H65.2996ZM78.8761 116.156C79.4948 115.346 80.3375 114.663 81.4041 114.108C82.4708 113.554 83.6761 113.276 85.0201 113.276C86.5561 113.276 87.9535 113.66 89.2121 114.428C90.4921 115.175 91.4948 116.231 92.2201 117.596C92.9455 118.962 93.3081 120.53 93.3081 122.3C93.3081 124.071 92.9455 125.66 92.2201 127.068C91.4948 128.455 90.4921 129.543 89.2121 130.332C87.9535 131.1 86.5561 131.484 85.0201 131.484C83.6761 131.484 82.4815 131.218 81.4361 130.684C80.3908 130.13 79.5375 129.447 78.8761 128.636V139.58H75.2281V113.564H78.8761V116.156ZM89.5961 122.3C89.5961 121.084 89.3401 120.039 88.8281 119.164C88.3375 118.268 87.6761 117.596 86.8441 117.148C86.0335 116.679 85.1588 116.444 84.2201 116.444C83.3028 116.444 82.4281 116.679 81.5961 117.148C80.7855 117.618 80.1241 118.3 79.6121 119.196C79.1215 120.092 78.8761 121.148 78.8761 122.364C78.8761 123.58 79.1215 124.647 79.6121 125.564C80.1241 126.46 80.7855 127.143 81.5961 127.612C82.4281 128.082 83.3028 128.316 84.2201 128.316C85.1588 128.316 86.0335 128.082 86.8441 127.612C87.6761 127.122 88.3375 126.418 88.8281 125.5C89.3401 124.583 89.5961 123.516 89.5961 122.3ZM100.564 116.156C101.182 115.346 102.025 114.663 103.092 114.108C104.158 113.554 105.364 113.276 106.708 113.276C108.244 113.276 109.641 113.66 110.9 114.428C112.18 115.175 113.182 116.231 113.908 117.596C114.633 118.962 114.996 120.53 114.996 122.3C114.996 124.071 114.633 125.66 113.908 127.068C113.182 128.455 112.18 129.543 110.9 130.332C109.641 131.1 108.244 131.484 106.708 131.484C105.364 131.484 104.169 131.218 103.124 130.684C102.078 130.13 101.225 129.447 100.564 128.636V139.58H96.9156V113.564H100.564V116.156ZM111.284 122.3C111.284 121.084 111.028 120.039 110.516 119.164C110.025 118.268 109.364 117.596 108.532 117.148C107.721 116.679 106.846 116.444 105.908 116.444C104.99 116.444 104.116 116.679 103.284 117.148C102.473 117.618 101.812 118.3 101.3 119.196C100.809 120.092 100.564 121.148 100.564 122.364C100.564 123.58 100.809 124.647 101.3 125.564C101.812 126.46 102.473 127.143 103.284 127.612C104.116 128.082 104.99 128.316 105.908 128.316C106.846 128.316 107.721 128.082 108.532 127.612C109.364 127.122 110.025 126.418 110.516 125.5C111.028 124.583 111.284 123.516 111.284 122.3ZM122.251 107.516V131.196H118.603V107.516H122.251ZM128.897 111.228C128.235 111.228 127.681 111.004 127.233 110.556C126.785 110.108 126.561 109.554 126.561 108.892C126.561 108.231 126.785 107.676 127.233 107.228C127.681 106.78 128.235 106.556 128.897 106.556C129.537 106.556 130.081 106.78 130.529 107.228C130.977 107.676 131.201 108.231 131.201 108.892C131.201 109.554 130.977 110.108 130.529 110.556C130.081 111.004 129.537 111.228 128.897 111.228ZM130.689 113.564V131.196H127.041V113.564H130.689ZM134.262 122.364C134.262 120.551 134.625 118.962 135.35 117.596C136.097 116.21 137.121 115.143 138.422 114.396C139.723 113.65 141.217 113.276 142.902 113.276C145.035 113.276 146.795 113.788 148.182 114.812C149.59 115.815 150.539 117.255 151.03 119.132H147.094C146.774 118.258 146.262 117.575 145.558 117.084C144.854 116.594 143.969 116.348 142.902 116.348C141.409 116.348 140.214 116.882 139.318 117.948C138.443 118.994 138.006 120.466 138.006 122.364C138.006 124.263 138.443 125.746 139.318 126.812C140.214 127.879 141.409 128.412 142.902 128.412C145.014 128.412 146.411 127.484 147.094 125.628H151.03C150.518 127.42 149.558 128.85 148.15 129.916C146.742 130.962 144.993 131.484 142.902 131.484C141.217 131.484 139.723 131.111 138.422 130.364C137.121 129.596 136.097 128.53 135.35 127.164C134.625 125.778 134.262 124.178 134.262 122.364ZM153.45 122.3C153.45 120.53 153.812 118.962 154.538 117.596C155.284 116.231 156.287 115.175 157.546 114.428C158.826 113.66 160.234 113.276 161.77 113.276C163.156 113.276 164.362 113.554 165.386 114.108C166.431 114.642 167.263 115.314 167.882 116.124V113.564H171.562V131.196H167.882V128.572C167.263 129.404 166.42 130.098 165.354 130.652C164.287 131.207 163.071 131.484 161.706 131.484C160.191 131.484 158.804 131.1 157.546 130.332C156.287 129.543 155.284 128.455 154.538 127.068C153.812 125.66 153.45 124.071 153.45 122.3ZM167.882 122.364C167.882 121.148 167.626 120.092 167.114 119.196C166.623 118.3 165.972 117.618 165.162 117.148C164.351 116.679 163.476 116.444 162.538 116.444C161.599 116.444 160.724 116.679 159.914 117.148C159.103 117.596 158.442 118.268 157.93 119.164C157.439 120.039 157.194 121.084 157.194 122.3C157.194 123.516 157.439 124.583 157.93 125.5C158.442 126.418 159.103 127.122 159.914 127.612C160.746 128.082 161.62 128.316 162.538 128.316C163.476 128.316 164.351 128.082 165.162 127.612C165.972 127.143 166.623 126.46 167.114 125.564C167.626 124.647 167.882 123.58 167.882 122.364ZM180.609 116.54V126.3C180.609 126.962 180.758 127.442 181.057 127.74C181.377 128.018 181.91 128.156 182.657 128.156H184.897V131.196H182.017C180.374 131.196 179.116 130.812 178.241 130.044C177.366 129.276 176.929 128.028 176.929 126.3V116.54H174.849V113.564H176.929V109.18H180.609V113.564H184.897V116.54H180.609ZM190.115 111.228C189.454 111.228 188.899 111.004 188.451 110.556C188.003 110.108 187.779 109.554 187.779 108.892C187.779 108.231 188.003 107.676 188.451 107.228C188.899 106.78 189.454 106.556 190.115 106.556C190.755 106.556 191.299 106.78 191.747 107.228C192.195 107.676 192.419 108.231 192.419 108.892C192.419 109.554 192.195 110.108 191.747 110.556C191.299 111.004 190.755 111.228 190.115 111.228ZM191.907 113.564V131.196H188.259V113.564H191.907ZM204.345 131.484C202.681 131.484 201.177 131.111 199.833 130.364C198.489 129.596 197.433 128.53 196.665 127.164C195.897 125.778 195.513 124.178 195.513 122.364C195.513 120.572 195.908 118.983 196.697 117.596C197.486 116.21 198.564 115.143 199.929 114.396C201.294 113.65 202.82 113.276 204.505 113.276C206.19 113.276 207.716 113.65 209.081 114.396C210.446 115.143 211.524 116.21 212.313 117.596C213.102 118.983 213.497 120.572 213.497 122.364C213.497 124.156 213.092 125.746 212.281 127.132C211.47 128.519 210.361 129.596 208.953 130.364C207.566 131.111 206.03 131.484 204.345 131.484ZM204.345 128.316C205.284 128.316 206.158 128.092 206.969 127.644C207.801 127.196 208.473 126.524 208.985 125.628C209.497 124.732 209.753 123.644 209.753 122.364C209.753 121.084 209.508 120.007 209.017 119.132C208.526 118.236 207.876 117.564 207.065 117.116C206.254 116.668 205.38 116.444 204.441 116.444C203.502 116.444 202.628 116.668 201.817 117.116C201.028 117.564 200.398 118.236 199.929 119.132C199.46 120.007 199.225 121.084 199.225 122.364C199.225 124.263 199.705 125.735 200.665 126.78C201.646 127.804 202.873 128.316 204.345 128.316ZM225.999 113.276C227.386 113.276 228.623 113.564 229.711 114.14C230.82 114.716 231.684 115.57 232.303 116.7C232.922 117.831 233.231 119.196 233.231 120.796V131.196H229.615V121.34C229.615 119.762 229.22 118.556 228.431 117.724C227.642 116.871 226.564 116.444 225.199 116.444C223.834 116.444 222.746 116.871 221.935 117.724C221.146 118.556 220.751 119.762 220.751 121.34V131.196H217.103V113.564H220.751V115.58C221.348 114.855 222.106 114.29 223.023 113.884C223.962 113.479 224.954 113.276 225.999 113.276ZM44.2421 156.956C46.6101 156.956 48.6795 157.415 50.4501 158.332C52.2421 159.228 53.6181 160.53 54.5781 162.236C55.5595 163.922 56.0501 165.895 56.0501 168.156C56.0501 170.418 55.5595 172.38 54.5781 174.044C53.6181 175.708 52.2421 176.988 50.4501 177.884C48.6795 178.759 46.6101 179.196 44.2421 179.196H36.9781V156.956H44.2421ZM44.2421 176.22C46.8448 176.22 48.8395 175.516 50.2261 174.108C51.6128 172.7 52.3061 170.716 52.3061 168.156C52.3061 165.575 51.6128 163.559 50.2261 162.108C48.8395 160.658 46.8448 159.932 44.2421 159.932H40.6261V176.22H44.2421ZM75.8256 169.948C75.8256 170.61 75.783 171.207 75.6976 171.74H62.2256C62.3323 173.148 62.855 174.279 63.7936 175.132C64.7323 175.986 65.8843 176.412 67.2496 176.412C69.2123 176.412 70.599 175.591 71.4096 173.948H75.3456C74.8123 175.57 73.8416 176.903 72.4336 177.948C71.047 178.972 69.319 179.484 67.2496 179.484C65.5643 179.484 64.0496 179.111 62.7056 178.364C61.383 177.596 60.3376 176.53 59.5696 175.164C58.823 173.778 58.4496 172.178 58.4496 170.364C58.4496 168.551 58.8123 166.962 59.5376 165.596C60.2843 164.21 61.319 163.143 62.6416 162.396C63.9856 161.65 65.5216 161.276 67.2496 161.276C68.9136 161.276 70.3963 161.639 71.6976 162.364C72.999 163.09 74.0123 164.114 74.7376 165.436C75.463 166.738 75.8256 168.242 75.8256 169.948ZM72.0176 168.796C71.9963 167.452 71.5163 166.375 70.5776 165.564C69.639 164.754 68.4763 164.348 67.0896 164.348C65.831 164.348 64.7536 164.754 63.8576 165.564C62.9616 166.354 62.4283 167.431 62.2576 168.796H72.0176ZM86.2316 175.932L91.2236 161.564H95.0956L88.3756 179.196H84.0236L77.3356 161.564H81.2396L86.2316 175.932ZM114.013 169.948C114.013 170.61 113.97 171.207 113.885 171.74H100.413C100.52 173.148 101.042 174.279 101.981 175.132C102.92 175.986 104.072 176.412 105.437 176.412C107.4 176.412 108.786 175.591 109.597 173.948H113.533C113 175.57 112.029 176.903 110.621 177.948C109.234 178.972 107.506 179.484 105.437 179.484C103.752 179.484 102.237 179.111 100.893 178.364C99.5705 177.596 98.5251 176.53 97.7571 175.164C97.0105 173.778 96.6371 172.178 96.6371 170.364C96.6371 168.551 96.9998 166.962 97.7251 165.596C98.4718 164.21 99.5065 163.143 100.829 162.396C102.173 161.65 103.709 161.276 105.437 161.276C107.101 161.276 108.584 161.639 109.885 162.364C111.186 163.09 112.2 164.114 112.925 165.436C113.65 166.738 114.013 168.242 114.013 169.948ZM110.205 168.796C110.184 167.452 109.704 166.375 108.765 165.564C107.826 164.754 106.664 164.348 105.277 164.348C104.018 164.348 102.941 164.754 102.045 165.564C101.149 166.354 100.616 167.431 100.445 168.796H110.205ZM121.251 155.516V179.196H117.603V155.516H121.251ZM133.689 179.484C132.025 179.484 130.521 179.111 129.177 178.364C127.833 177.596 126.777 176.53 126.009 175.164C125.241 173.778 124.857 172.178 124.857 170.364C124.857 168.572 125.251 166.983 126.041 165.596C126.83 164.21 127.907 163.143 129.273 162.396C130.638 161.65 132.163 161.276 133.849 161.276C135.534 161.276 137.059 161.65 138.425 162.396C139.79 163.143 140.867 164.21 141.657 165.596C142.446 166.983 142.841 168.572 142.841 170.364C142.841 172.156 142.435 173.746 141.625 175.132C140.814 176.519 139.705 177.596 138.297 178.364C136.91 179.111 135.374 179.484 133.689 179.484ZM133.689 176.316C134.627 176.316 135.502 176.092 136.313 175.644C137.145 175.196 137.817 174.524 138.329 173.628C138.841 172.732 139.097 171.644 139.097 170.364C139.097 169.084 138.851 168.007 138.361 167.132C137.87 166.236 137.219 165.564 136.409 165.116C135.598 164.668 134.723 164.444 133.785 164.444C132.846 164.444 131.971 164.668 131.161 165.116C130.371 165.564 129.742 166.236 129.273 167.132C128.803 168.007 128.569 169.084 128.569 170.364C128.569 172.263 129.049 173.735 130.009 174.78C130.99 175.804 132.217 176.316 133.689 176.316ZM150.095 164.156C150.714 163.346 151.556 162.663 152.623 162.108C153.69 161.554 154.895 161.276 156.239 161.276C157.775 161.276 159.172 161.66 160.431 162.428C161.711 163.175 162.714 164.231 163.439 165.596C164.164 166.962 164.527 168.53 164.527 170.3C164.527 172.071 164.164 173.66 163.439 175.068C162.714 176.455 161.711 177.543 160.431 178.332C159.172 179.1 157.775 179.484 156.239 179.484C154.895 179.484 153.7 179.218 152.655 178.684C151.61 178.13 150.756 177.447 150.095 176.636V187.58H146.447V161.564H150.095V164.156ZM160.815 170.3C160.815 169.084 160.559 168.039 160.047 167.164C159.556 166.268 158.895 165.596 158.063 165.148C157.252 164.679 156.378 164.444 155.439 164.444C154.522 164.444 153.647 164.679 152.815 165.148C152.004 165.618 151.343 166.3 150.831 167.196C150.34 168.092 150.095 169.148 150.095 170.364C150.095 171.58 150.34 172.647 150.831 173.564C151.343 174.46 152.004 175.143 152.815 175.612C153.647 176.082 154.522 176.316 155.439 176.316C156.378 176.316 157.252 176.082 158.063 175.612C158.895 175.122 159.556 174.418 160.047 173.5C160.559 172.583 160.815 171.516 160.815 170.3ZM189.478 161.276C190.865 161.276 192.102 161.564 193.19 162.14C194.3 162.716 195.164 163.57 195.782 164.7C196.422 165.831 196.742 167.196 196.742 168.796V179.196H193.126V169.34C193.126 167.762 192.732 166.556 191.942 165.724C191.153 164.871 190.076 164.444 188.71 164.444C187.345 164.444 186.257 164.871 185.446 165.724C184.657 166.556 184.262 167.762 184.262 169.34V179.196H180.646V169.34C180.646 167.762 180.252 166.556 179.462 165.724C178.673 164.871 177.596 164.444 176.23 164.444C174.865 164.444 173.777 164.871 172.966 165.724C172.177 166.556 171.782 167.762 171.782 169.34V179.196H168.134V161.564H171.782V163.58C172.38 162.855 173.137 162.29 174.054 161.884C174.972 161.479 175.953 161.276 176.998 161.276C178.406 161.276 179.665 161.575 180.774 162.172C181.884 162.77 182.737 163.634 183.334 164.764C183.868 163.698 184.7 162.855 185.83 162.236C186.961 161.596 188.177 161.276 189.478 161.276ZM217.544 169.948C217.544 170.61 217.502 171.207 217.416 171.74H203.944C204.051 173.148 204.574 174.279 205.512 175.132C206.451 175.986 207.603 176.412 208.968 176.412C210.931 176.412 212.318 175.591 213.128 173.948H217.064C216.531 175.57 215.56 176.903 214.152 177.948C212.766 178.972 211.038 179.484 208.968 179.484C207.283 179.484 205.768 179.111 204.424 178.364C203.102 177.596 202.056 176.53 201.288 175.164C200.542 173.778 200.168 172.178 200.168 170.364C200.168 168.551 200.531 166.962 201.256 165.596C202.003 164.21 203.038 163.143 204.36 162.396C205.704 161.65 207.24 161.276 208.968 161.276C210.632 161.276 212.115 161.639 213.416 162.364C214.718 163.09 215.731 164.114 216.456 165.436C217.182 166.738 217.544 168.242 217.544 169.948ZM213.736 168.796C213.715 167.452 213.235 166.375 212.296 165.564C211.358 164.754 210.195 164.348 208.808 164.348C207.55 164.348 206.472 164.754 205.576 165.564C204.68 166.354 204.147 167.431 203.976 168.796H213.736ZM230.03 161.276C231.417 161.276 232.654 161.564 233.742 162.14C234.852 162.716 235.716 163.57 236.334 164.7C236.953 165.831 237.262 167.196 237.262 168.796V179.196H233.646V169.34C233.646 167.762 233.252 166.556 232.462 165.724C231.673 164.871 230.596 164.444 229.23 164.444C227.865 164.444 226.777 164.871 225.966 165.724C225.177 166.556 224.782 167.762 224.782 169.34V179.196H221.134V161.564H224.782V163.58C225.38 162.855 226.137 162.29 227.054 161.884C227.993 161.479 228.985 161.276 230.03 161.276ZM246.172 164.54V174.3C246.172 174.962 246.321 175.442 246.62 175.74C246.94 176.018 247.473 176.156 248.22 176.156H250.46V179.196H247.58C245.937 179.196 244.678 178.812 243.804 178.044C242.929 177.276 242.492 176.028 242.492 174.3V164.54H240.412V161.564H242.492V157.18H246.172V161.564H250.46V164.54H246.172Z" fill="#1D1D1D"/>
</svg>
