<svg width="286" height="201" viewBox="0 0 286 201" fill="none" xmlns="http://www.w3.org/2000/svg">
<g clip-path="url(#clip0_2683_233)">
<path d="M148.062 37.4541C148.953 37.8057 149.82 38.1924 150.664 38.6143C151.508 39.0361 152.328 39.5166 153.125 40.0557C152.609 40.6182 152.141 41.2041 151.719 41.8135C151.297 42.4229 150.91 43.0791 150.559 43.7822C148.754 42.6104 146.832 41.7197 144.793 41.1104C142.754 40.501 140.656 40.1963 138.5 40.1963C136.438 40.1963 134.445 40.4658 132.523 41.0049C130.602 41.5439 128.809 42.2939 127.145 43.2549C125.48 44.2158 123.969 45.3877 122.609 46.7705C121.25 48.1533 120.078 49.6768 119.094 51.3408C118.109 53.0049 117.348 54.7979 116.809 56.7197C116.27 58.6416 116 60.6338 116 62.6963H111.5C111.5 59.8838 111.91 57.1768 112.73 54.5752C113.551 51.9736 114.734 49.5713 116.281 47.3682C117.828 45.165 119.656 43.208 121.766 41.4971C123.875 39.7861 126.266 38.4385 128.938 37.4541C126.289 35.7197 124.227 33.54 122.75 30.915C121.273 28.29 120.523 25.3838 120.5 22.1963C120.5 19.7119 120.969 17.3799 121.906 15.2002C122.844 13.0205 124.121 11.1104 125.738 9.46973C127.355 7.8291 129.266 6.54004 131.469 5.60254C133.672 4.66504 136.016 4.19629 138.5 4.19629C140.984 4.19629 143.316 4.66504 145.496 5.60254C147.676 6.54004 149.586 7.81738 151.227 9.43457C152.867 11.0518 154.156 12.9619 155.094 15.165C156.031 17.3682 156.5 19.7119 156.5 22.1963C156.5 23.7432 156.312 25.2549 155.938 26.7314C155.562 28.208 155 29.6025 154.25 30.915C153.5 32.2275 152.621 33.4346 151.613 34.5361C150.605 35.6377 149.422 36.6104 148.062 37.4541ZM125 22.1963C125 24.0713 125.352 25.8174 126.055 27.4346C126.758 29.0518 127.719 30.4814 128.938 31.7236C130.156 32.9658 131.586 33.9385 133.227 34.6416C134.867 35.3447 136.625 35.6963 138.5 35.6963C140.352 35.6963 142.098 35.3447 143.738 34.6416C145.379 33.9385 146.809 32.9775 148.027 31.7588C149.246 30.54 150.219 29.1104 150.945 27.4697C151.672 25.8291 152.023 24.0713 152 22.1963C152 20.3447 151.648 18.5986 150.945 16.958C150.242 15.3174 149.281 13.8877 148.062 12.6689C146.844 11.4502 145.402 10.4775 143.738 9.75098C142.074 9.02441 140.328 8.67285 138.5 8.69629C136.625 8.69629 134.879 9.04785 133.262 9.75098C131.645 10.4541 130.215 11.415 128.973 12.6338C127.73 13.8525 126.758 15.2939 126.055 16.958C125.352 18.6221 125 20.3682 125 22.1963ZM176.75 51.4463C176.75 52.665 176.562 53.8486 176.188 54.9971C175.812 56.1455 175.25 57.2119 174.5 58.1963V76.1963L165.5 71.6963L156.5 76.1963V58.1963C155.773 57.2119 155.223 56.1455 154.848 54.9971C154.473 53.8486 154.273 52.665 154.25 51.4463C154.25 49.8994 154.543 48.4463 155.129 47.0869C155.715 45.7275 156.512 44.5439 157.52 43.5361C158.527 42.5283 159.723 41.7197 161.105 41.1104C162.488 40.501 163.953 40.1963 165.5 40.1963C167.047 40.1963 168.5 40.4893 169.859 41.0752C171.219 41.6611 172.402 42.4697 173.41 43.501C174.418 44.5322 175.227 45.7275 175.836 47.0869C176.445 48.4463 176.75 49.8994 176.75 51.4463ZM165.5 44.6963C164.562 44.6963 163.684 44.8721 162.863 45.2236C162.043 45.5752 161.328 46.0557 160.719 46.665C160.109 47.2744 159.629 47.9893 159.277 48.8096C158.926 49.6299 158.75 50.5088 158.75 51.4463C158.75 52.3838 158.926 53.2627 159.277 54.083C159.629 54.9033 160.109 55.6182 160.719 56.2275C161.328 56.8369 162.043 57.3174 162.863 57.6689C163.684 58.0205 164.562 58.1963 165.5 58.1963C166.438 58.1963 167.316 58.0205 168.137 57.6689C168.957 57.3174 169.672 56.8369 170.281 56.2275C170.891 55.6182 171.371 54.9033 171.723 54.083C172.074 53.2627 172.25 52.3838 172.25 51.4463C172.25 50.5088 172.074 49.6299 171.723 48.8096C171.371 47.9893 170.891 47.2744 170.281 46.665C169.672 46.0557 168.957 45.5752 168.137 45.2236C167.316 44.8721 166.438 44.6963 165.5 44.6963ZM170 68.9189V61.7471C168.594 62.3799 167.094 62.6963 165.5 62.6963C163.906 62.6963 162.406 62.3799 161 61.7471V68.9189C161.75 68.5439 162.5 68.1807 163.25 67.8291C164 67.4775 164.75 67.0908 165.5 66.6689C166.25 67.0674 167 67.4424 167.75 67.7939C168.5 68.1455 169.25 68.5205 170 68.9189Z" fill="#0948B4"/>
</g>
<path d="M78.548 119.9V126.428H86.228V129.404H78.548V136.22H87.188V139.196H74.9V116.924H87.188V119.9H78.548ZM99.2333 130.268L104.929 139.196H100.801L96.9933 133.212L93.4093 139.196H89.6013L95.2973 130.524L89.6013 121.564H93.7293L97.5373 127.548L101.121 121.564H104.929L99.2333 130.268ZM106.434 130.364C106.434 128.551 106.797 126.962 107.522 125.596C108.269 124.21 109.293 123.143 110.594 122.396C111.895 121.65 113.389 121.276 115.074 121.276C117.207 121.276 118.967 121.788 120.354 122.812C121.762 123.815 122.711 125.255 123.202 127.132H119.266C118.946 126.258 118.434 125.575 117.73 125.084C117.026 124.594 116.141 124.348 115.074 124.348C113.581 124.348 112.386 124.882 111.49 125.948C110.615 126.994 110.178 128.466 110.178 130.364C110.178 132.263 110.615 133.746 111.49 134.812C112.386 135.879 113.581 136.412 115.074 136.412C117.186 136.412 118.583 135.484 119.266 133.628H123.202C122.69 135.42 121.73 136.85 120.322 137.916C118.914 138.962 117.165 139.484 115.074 139.484C113.389 139.484 111.895 139.111 110.594 138.364C109.293 137.596 108.269 136.53 107.522 135.164C106.797 133.778 106.434 132.178 106.434 130.364ZM142.998 129.948C142.998 130.61 142.955 131.207 142.87 131.74H129.398C129.504 133.148 130.027 134.279 130.966 135.132C131.904 135.986 133.056 136.412 134.422 136.412C136.384 136.412 137.771 135.591 138.582 133.948H142.517C141.984 135.57 141.014 136.903 139.606 137.948C138.219 138.972 136.491 139.484 134.422 139.484C132.736 139.484 131.222 139.111 129.878 138.364C128.555 137.596 127.51 136.53 126.742 135.164C125.995 133.778 125.622 132.178 125.622 130.364C125.622 128.551 125.984 126.962 126.71 125.596C127.456 124.21 128.491 123.143 129.814 122.396C131.158 121.65 132.694 121.276 134.422 121.276C136.086 121.276 137.568 121.639 138.87 122.364C140.171 123.09 141.184 124.114 141.91 125.436C142.635 126.738 142.998 128.242 142.998 129.948ZM139.19 128.796C139.168 127.452 138.688 126.375 137.75 125.564C136.811 124.754 135.648 124.348 134.262 124.348C133.003 124.348 131.926 124.754 131.03 125.564C130.134 126.354 129.6 127.431 129.43 128.796H139.19ZM150.236 115.516V139.196H146.588V115.516H150.236ZM158.673 115.516V139.196H155.025V115.516H158.673ZM179.623 129.948C179.623 130.61 179.58 131.207 179.495 131.74H166.023C166.129 133.148 166.652 134.279 167.591 135.132C168.529 135.986 169.681 136.412 171.047 136.412C173.009 136.412 174.396 135.591 175.207 133.948H179.142C178.609 135.57 177.639 136.903 176.231 137.948C174.844 138.972 173.116 139.484 171.047 139.484C169.361 139.484 167.847 139.111 166.503 138.364C165.18 137.596 164.135 136.53 163.367 135.164C162.62 133.778 162.247 132.178 162.247 130.364C162.247 128.551 162.609 126.962 163.335 125.596C164.081 124.21 165.116 123.143 166.439 122.396C167.783 121.65 169.319 121.276 171.047 121.276C172.711 121.276 174.193 121.639 175.495 122.364C176.796 123.09 177.809 124.114 178.535 125.436C179.26 126.738 179.623 128.242 179.623 129.948ZM175.815 128.796C175.793 127.452 175.313 126.375 174.375 125.564C173.436 124.754 172.273 124.348 170.887 124.348C169.628 124.348 168.551 124.754 167.655 125.564C166.759 126.354 166.225 127.431 166.055 128.796H175.815ZM192.109 121.276C193.495 121.276 194.733 121.564 195.821 122.14C196.93 122.716 197.794 123.57 198.413 124.7C199.031 125.831 199.341 127.196 199.341 128.796V139.196H195.725V129.34C195.725 127.762 195.33 126.556 194.541 125.724C193.751 124.871 192.674 124.444 191.309 124.444C189.943 124.444 188.855 124.871 188.045 125.724C187.255 126.556 186.861 127.762 186.861 129.34V139.196H183.213V121.564H186.861V123.58C187.458 122.855 188.215 122.29 189.133 121.884C190.071 121.479 191.063 121.276 192.109 121.276ZM208.25 124.54V134.3C208.25 134.962 208.399 135.442 208.698 135.74C209.018 136.018 209.551 136.156 210.298 136.156H212.538V139.196H209.658C208.015 139.196 206.756 138.812 205.882 138.044C205.007 137.276 204.57 136.028 204.57 134.3V124.54H202.49V121.564H204.57V117.18H208.25V121.564H212.538V124.54H208.25ZM70.5649 164.956V167.932H64.6449V187.196H60.9969V167.932H55.0449V164.956H70.5649ZM90.4194 177.948C90.4194 178.61 90.3767 179.207 90.2914 179.74H76.8194C76.926 181.148 77.4487 182.279 78.3874 183.132C79.326 183.986 80.478 184.412 81.8434 184.412C83.806 184.412 85.1927 183.591 86.0034 181.948H89.9394C89.406 183.57 88.4354 184.903 87.0274 185.948C85.6407 186.972 83.9127 187.484 81.8434 187.484C80.158 187.484 78.6434 187.111 77.2994 186.364C75.9767 185.596 74.9314 184.53 74.1634 183.164C73.4167 181.778 73.0434 180.178 73.0434 178.364C73.0434 176.551 73.406 174.962 74.1314 173.596C74.878 172.21 75.9127 171.143 77.2354 170.396C78.5794 169.65 80.1154 169.276 81.8434 169.276C83.5074 169.276 84.99 169.639 86.2914 170.364C87.5927 171.09 88.606 172.114 89.3314 173.436C90.0567 174.738 90.4194 176.242 90.4194 177.948ZM86.6114 176.796C86.59 175.452 86.11 174.375 85.1714 173.564C84.2327 172.754 83.07 172.348 81.6834 172.348C80.4247 172.348 79.3474 172.754 78.4514 173.564C77.5554 174.354 77.022 175.431 76.8514 176.796H86.6114ZM92.7934 178.3C92.7934 176.53 93.156 174.962 93.8814 173.596C94.628 172.231 95.6307 171.175 96.8894 170.428C98.1694 169.66 99.5774 169.276 101.113 169.276C102.5 169.276 103.705 169.554 104.729 170.108C105.775 170.642 106.607 171.314 107.225 172.124V169.564H110.905V187.196H107.225V184.572C106.607 185.404 105.764 186.098 104.697 186.652C103.631 187.207 102.415 187.484 101.049 187.484C99.5347 187.484 98.148 187.1 96.8894 186.332C95.6307 185.543 94.628 184.455 93.8814 183.068C93.156 181.66 92.7934 180.071 92.7934 178.3ZM107.225 178.364C107.225 177.148 106.969 176.092 106.457 175.196C105.967 174.3 105.316 173.618 104.505 173.148C103.695 172.679 102.82 172.444 101.881 172.444C100.943 172.444 100.068 172.679 99.2574 173.148C98.4467 173.596 97.7854 174.268 97.2734 175.164C96.7827 176.039 96.5374 177.084 96.5374 178.3C96.5374 179.516 96.7827 180.583 97.2734 181.5C97.7854 182.418 98.4467 183.122 99.2574 183.612C100.089 184.082 100.964 184.316 101.881 184.316C102.82 184.316 103.695 184.082 104.505 183.612C105.316 183.143 105.967 182.46 106.457 181.564C106.969 180.647 107.225 179.58 107.225 178.364ZM137.041 169.276C138.428 169.276 139.665 169.564 140.753 170.14C141.862 170.716 142.726 171.57 143.345 172.7C143.985 173.831 144.305 175.196 144.305 176.796V187.196H140.689V177.34C140.689 175.762 140.294 174.556 139.505 173.724C138.716 172.871 137.638 172.444 136.273 172.444C134.908 172.444 133.82 172.871 133.009 173.724C132.22 174.556 131.825 175.762 131.825 177.34V187.196H128.209V177.34C128.209 175.762 127.814 174.556 127.025 173.724C126.236 172.871 125.158 172.444 123.793 172.444C122.428 172.444 121.34 172.871 120.529 173.724C119.74 174.556 119.345 175.762 119.345 177.34V187.196H115.697V169.564H119.345V171.58C119.942 170.855 120.7 170.29 121.617 169.884C122.534 169.479 123.516 169.276 124.561 169.276C125.969 169.276 127.228 169.575 128.337 170.172C129.446 170.77 130.3 171.634 130.897 172.764C131.43 171.698 132.262 170.855 133.393 170.236C134.524 169.596 135.74 169.276 137.041 169.276ZM160.907 184.252H168.427V187.196H157.259V164.956H160.907V184.252ZM187.638 177.948C187.638 178.61 187.595 179.207 187.51 179.74H174.038C174.145 181.148 174.667 182.279 175.606 183.132C176.545 183.986 177.697 184.412 179.062 184.412C181.025 184.412 182.411 183.591 183.222 181.948H187.158C186.625 183.57 185.654 184.903 184.246 185.948C182.859 186.972 181.131 187.484 179.062 187.484C177.377 187.484 175.862 187.111 174.518 186.364C173.195 185.596 172.15 184.53 171.382 183.164C170.635 181.778 170.262 180.178 170.262 178.364C170.262 176.551 170.625 174.962 171.35 173.596C172.097 172.21 173.131 171.143 174.454 170.396C175.798 169.65 177.334 169.276 179.062 169.276C180.726 169.276 182.209 169.639 183.51 170.364C184.811 171.09 185.825 172.114 186.55 173.436C187.275 174.738 187.638 176.242 187.638 177.948ZM183.83 176.796C183.809 175.452 183.329 174.375 182.39 173.564C181.451 172.754 180.289 172.348 178.902 172.348C177.643 172.348 176.566 172.754 175.67 173.564C174.774 174.354 174.241 175.431 174.07 176.796H183.83ZM190.012 178.3C190.012 176.53 190.375 174.962 191.1 173.596C191.847 172.231 192.849 171.175 194.108 170.428C195.388 169.66 196.796 169.276 198.332 169.276C199.719 169.276 200.924 169.554 201.948 170.108C202.993 170.642 203.825 171.314 204.444 172.124V169.564H208.124V187.196H204.444V184.572C203.825 185.404 202.983 186.098 201.916 186.652C200.849 187.207 199.633 187.484 198.268 187.484C196.753 187.484 195.367 187.1 194.108 186.332C192.849 185.543 191.847 184.455 191.1 183.068C190.375 181.66 190.012 180.071 190.012 178.3ZM204.444 178.364C204.444 177.148 204.188 176.092 203.676 175.196C203.185 174.3 202.535 173.618 201.724 173.148C200.913 172.679 200.039 172.444 199.1 172.444C198.161 172.444 197.287 172.679 196.476 173.148C195.665 173.596 195.004 174.268 194.492 175.164C194.001 176.039 193.756 177.084 193.756 178.3C193.756 179.516 194.001 180.583 194.492 181.5C195.004 182.418 195.665 183.122 196.476 183.612C197.308 184.082 198.183 184.316 199.1 184.316C200.039 184.316 200.913 184.082 201.724 183.612C202.535 183.143 203.185 182.46 203.676 181.564C204.188 180.647 204.444 179.58 204.444 178.364ZM211.7 178.3C211.7 176.53 212.062 174.962 212.788 173.596C213.534 172.231 214.537 171.175 215.796 170.428C217.076 169.66 218.494 169.276 220.052 169.276C221.204 169.276 222.334 169.532 223.444 170.044C224.574 170.535 225.47 171.196 226.132 172.028V163.516H229.812V187.196H226.132V184.54C225.534 185.394 224.702 186.098 223.636 186.652C222.59 187.207 221.385 187.484 220.02 187.484C218.484 187.484 217.076 187.1 215.796 186.332C214.537 185.543 213.534 184.455 212.788 183.068C212.062 181.66 211.7 180.071 211.7 178.3ZM226.132 178.364C226.132 177.148 225.876 176.092 225.364 175.196C224.873 174.3 224.222 173.618 223.412 173.148C222.601 172.679 221.726 172.444 220.788 172.444C219.849 172.444 218.974 172.679 218.164 173.148C217.353 173.596 216.692 174.268 216.18 175.164C215.689 176.039 215.444 177.084 215.444 178.3C215.444 179.516 215.689 180.583 216.18 181.5C216.692 182.418 217.353 183.122 218.164 183.612C218.996 184.082 219.87 184.316 220.788 184.316C221.726 184.316 222.601 184.082 223.412 183.612C224.222 183.143 224.873 182.46 225.364 181.564C225.876 180.647 226.132 179.58 226.132 178.364Z" fill="#1D1D1D"/>
<defs>
<clipPath id="clip0_2683_233">
<rect width="72" height="72" fill="white" transform="translate(107 4.19629)"/>
</clipPath>
</defs>
</svg>
