<svg width="286" height="197" viewBox="0 0 286 197" fill="none" xmlns="http://www.w3.org/2000/svg">
<path d="M154.25 13.9463H116.75V66.4463H169.25V48.9463" stroke="#0948B4" stroke-width="4.5" stroke-linecap="round" stroke-linejoin="round"/>
<path d="M131.75 38.9463L144.25 51.4463L174.25 18.9463" stroke="#0948B4" stroke-width="4.5" stroke-linecap="round" stroke-linejoin="round"/>
<path d="M93.5301 119.58C93.5301 120.711 93.2635 121.778 92.7301 122.78C92.1968 123.783 91.3435 124.604 90.1701 125.244C88.9968 125.863 87.4928 126.172 85.6581 126.172H81.6261V135.196H77.9781V112.956H85.6581C87.3648 112.956 88.8048 113.255 89.9781 113.852C91.1728 114.428 92.0581 115.218 92.6341 116.22C93.2315 117.223 93.5301 118.343 93.5301 119.58ZM85.6581 123.196C87.0448 123.196 88.0795 122.887 88.7621 122.268C89.4448 121.628 89.7861 120.732 89.7861 119.58C89.7861 117.148 88.4101 115.932 85.6581 115.932H81.6261V123.196H85.6581ZM100.657 120.124C101.191 119.228 101.895 118.535 102.769 118.044C103.665 117.532 104.721 117.276 105.937 117.276V121.052H105.009C103.58 121.052 102.492 121.415 101.745 122.14C101.02 122.866 100.657 124.124 100.657 125.916V135.196H97.0094V117.564H100.657V120.124ZM116.939 135.484C115.275 135.484 113.771 135.111 112.427 134.364C111.083 133.596 110.027 132.53 109.259 131.164C108.491 129.778 108.107 128.178 108.107 126.364C108.107 124.572 108.501 122.983 109.291 121.596C110.08 120.21 111.157 119.143 112.523 118.396C113.888 117.65 115.413 117.276 117.099 117.276C118.784 117.276 120.309 117.65 121.675 118.396C123.04 119.143 124.117 120.21 124.907 121.596C125.696 122.983 126.091 124.572 126.091 126.364C126.091 128.156 125.685 129.746 124.875 131.132C124.064 132.519 122.955 133.596 121.547 134.364C120.16 135.111 118.624 135.484 116.939 135.484ZM116.939 132.316C117.877 132.316 118.752 132.092 119.563 131.644C120.395 131.196 121.067 130.524 121.579 129.628C122.091 128.732 122.347 127.644 122.347 126.364C122.347 125.084 122.101 124.007 121.611 123.132C121.12 122.236 120.469 121.564 119.659 121.116C118.848 120.668 117.973 120.444 117.035 120.444C116.096 120.444 115.221 120.668 114.411 121.116C113.621 121.564 112.992 122.236 112.523 123.132C112.053 124.007 111.819 125.084 111.819 126.364C111.819 128.263 112.299 129.735 113.259 130.78C114.24 131.804 115.467 132.316 116.939 132.316ZM133.345 120.188C133.964 119.335 134.806 118.642 135.873 118.108C136.961 117.554 138.166 117.276 139.489 117.276C141.046 117.276 142.454 117.65 143.713 118.396C144.972 119.143 145.964 120.21 146.689 121.596C147.414 122.962 147.777 124.53 147.777 126.3C147.777 128.071 147.414 129.66 146.689 131.068C145.964 132.455 144.961 133.543 143.681 134.332C142.422 135.1 141.025 135.484 139.489 135.484C138.124 135.484 136.908 135.218 135.841 134.684C134.796 134.151 133.964 133.468 133.345 132.636V135.196H129.697V111.516H133.345V120.188ZM144.065 126.3C144.065 125.084 143.809 124.039 143.297 123.164C142.806 122.268 142.145 121.596 141.313 121.148C140.502 120.679 139.628 120.444 138.689 120.444C137.772 120.444 136.897 120.679 136.065 121.148C135.254 121.618 134.593 122.3 134.081 123.196C133.59 124.092 133.345 125.148 133.345 126.364C133.345 127.58 133.59 128.647 134.081 129.564C134.593 130.46 135.254 131.143 136.065 131.612C136.897 132.082 137.772 132.316 138.689 132.316C139.628 132.316 140.502 132.082 141.313 131.612C142.145 131.122 142.806 130.418 143.297 129.5C143.809 128.583 144.065 127.516 144.065 126.3ZM155.032 111.516V135.196H151.384V111.516H155.032ZM175.982 125.948C175.982 126.61 175.939 127.207 175.854 127.74H162.382C162.489 129.148 163.011 130.279 163.95 131.132C164.889 131.986 166.041 132.412 167.406 132.412C169.369 132.412 170.755 131.591 171.566 129.948H175.502C174.969 131.57 173.998 132.903 172.59 133.948C171.203 134.972 169.475 135.484 167.406 135.484C165.721 135.484 164.206 135.111 162.862 134.364C161.539 133.596 160.494 132.53 159.726 131.164C158.979 129.778 158.606 128.178 158.606 126.364C158.606 124.551 158.969 122.962 159.694 121.596C160.441 120.21 161.475 119.143 162.798 118.396C164.142 117.65 165.678 117.276 167.406 117.276C169.07 117.276 170.553 117.639 171.854 118.364C173.155 119.09 174.169 120.114 174.894 121.436C175.619 122.738 175.982 124.242 175.982 125.948ZM172.174 124.796C172.153 123.452 171.673 122.375 170.734 121.564C169.795 120.754 168.633 120.348 167.246 120.348C165.987 120.348 164.91 120.754 164.014 121.564C163.118 122.354 162.585 123.431 162.414 124.796H172.174ZM200.916 117.276C202.303 117.276 203.54 117.564 204.628 118.14C205.737 118.716 206.601 119.57 207.22 120.7C207.86 121.831 208.18 123.196 208.18 124.796V135.196H204.564V125.34C204.564 123.762 204.169 122.556 203.38 121.724C202.591 120.871 201.513 120.444 200.148 120.444C198.783 120.444 197.695 120.871 196.884 121.724C196.095 122.556 195.7 123.762 195.7 125.34V135.196H192.084V125.34C192.084 123.762 191.689 122.556 190.9 121.724C190.111 120.871 189.033 120.444 187.668 120.444C186.303 120.444 185.215 120.871 184.404 121.724C183.615 122.556 183.22 123.762 183.22 125.34V135.196H179.572V117.564H183.22V119.58C183.817 118.855 184.575 118.29 185.492 117.884C186.409 117.479 187.391 117.276 188.436 117.276C189.844 117.276 191.103 117.575 192.212 118.172C193.321 118.77 194.175 119.634 194.772 120.764C195.305 119.698 196.137 118.855 197.268 118.236C198.399 117.596 199.615 117.276 200.916 117.276ZM93.978 183.42C92.4847 183.42 91.1407 183.164 89.946 182.652C88.7513 182.119 87.8127 181.372 87.13 180.412C86.4473 179.452 86.106 178.332 86.106 177.052H90.01C90.0953 178.012 90.4687 178.802 91.13 179.42C91.8127 180.039 92.762 180.348 93.978 180.348C95.2367 180.348 96.218 180.05 96.922 179.452C97.626 178.834 97.978 178.044 97.978 177.084C97.978 176.338 97.754 175.73 97.306 175.26C96.8793 174.791 96.3353 174.428 95.674 174.172C95.034 173.916 94.138 173.639 92.986 173.34C91.5353 172.956 90.3513 172.572 89.434 172.188C88.538 171.783 87.77 171.164 87.13 170.332C86.49 169.5 86.17 168.391 86.17 167.004C86.17 165.724 86.49 164.604 87.13 163.644C87.77 162.684 88.666 161.948 89.818 161.436C90.97 160.924 92.3033 160.668 93.818 160.668C95.9727 160.668 97.7327 161.212 99.098 162.3C100.485 163.367 101.253 164.839 101.402 166.716H97.37C97.306 165.906 96.922 165.212 96.218 164.636C95.514 164.06 94.586 163.772 93.434 163.772C92.3887 163.772 91.5353 164.039 90.874 164.572C90.2127 165.106 89.882 165.874 89.882 166.876C89.882 167.559 90.0847 168.124 90.49 168.572C90.9167 168.999 91.45 169.34 92.09 169.596C92.73 169.852 93.6047 170.13 94.714 170.428C96.186 170.834 97.3807 171.239 98.298 171.644C99.2367 172.05 100.026 172.679 100.666 173.532C101.327 174.364 101.658 175.484 101.658 176.892C101.658 178.023 101.349 179.09 100.73 180.092C100.133 181.095 99.2473 181.906 98.074 182.524C96.922 183.122 95.5567 183.42 93.978 183.42ZM113.611 183.484C111.947 183.484 110.443 183.111 109.099 182.364C107.755 181.596 106.699 180.53 105.931 179.164C105.163 177.778 104.779 176.178 104.779 174.364C104.779 172.572 105.173 170.983 105.963 169.596C106.752 168.21 107.829 167.143 109.195 166.396C110.56 165.65 112.085 165.276 113.771 165.276C115.456 165.276 116.981 165.65 118.347 166.396C119.712 167.143 120.789 168.21 121.579 169.596C122.368 170.983 122.763 172.572 122.763 174.364C122.763 176.156 122.357 177.746 121.547 179.132C120.736 180.519 119.627 181.596 118.219 182.364C116.832 183.111 115.296 183.484 113.611 183.484ZM113.611 180.316C114.549 180.316 115.424 180.092 116.235 179.644C117.067 179.196 117.739 178.524 118.251 177.628C118.763 176.732 119.019 175.644 119.019 174.364C119.019 173.084 118.773 172.007 118.283 171.132C117.792 170.236 117.141 169.564 116.331 169.116C115.52 168.668 114.645 168.444 113.707 168.444C112.768 168.444 111.893 168.668 111.083 169.116C110.293 169.564 109.664 170.236 109.195 171.132C108.725 172.007 108.491 173.084 108.491 174.364C108.491 176.263 108.971 177.735 109.931 178.78C110.912 179.804 112.139 180.316 113.611 180.316ZM130.017 159.516V183.196H126.369V159.516H130.017ZM141.622 179.932L146.614 165.564H150.486L143.766 183.196H139.414L132.726 165.564H136.63L141.622 179.932ZM155.1 163.228C154.438 163.228 153.884 163.004 153.436 162.556C152.988 162.108 152.764 161.554 152.764 160.892C152.764 160.231 152.988 159.676 153.436 159.228C153.884 158.78 154.438 158.556 155.1 158.556C155.74 158.556 156.284 158.78 156.732 159.228C157.18 159.676 157.404 160.231 157.404 160.892C157.404 161.554 157.18 162.108 156.732 162.556C156.284 163.004 155.74 163.228 155.1 163.228ZM156.892 165.564V183.196H153.244V165.564H156.892ZM170.577 165.276C171.964 165.276 173.201 165.564 174.289 166.14C175.399 166.716 176.263 167.57 176.881 168.7C177.5 169.831 177.809 171.196 177.809 172.796V183.196H174.193V173.34C174.193 171.762 173.799 170.556 173.009 169.724C172.22 168.871 171.143 168.444 169.777 168.444C168.412 168.444 167.324 168.871 166.513 169.724C165.724 170.556 165.329 171.762 165.329 173.34V183.196H161.681V165.564H165.329V167.58C165.927 166.855 166.684 166.29 167.601 165.884C168.54 165.479 169.532 165.276 170.577 165.276ZM189.567 165.276C190.932 165.276 192.137 165.554 193.183 166.108C194.249 166.642 195.081 167.314 195.679 168.124V165.564H199.359V183.484C199.359 185.106 199.017 186.546 198.335 187.804C197.652 189.084 196.66 190.087 195.359 190.812C194.079 191.538 192.543 191.9 190.751 191.9C188.361 191.9 186.377 191.335 184.799 190.204C183.22 189.095 182.324 187.58 182.111 185.66H185.727C186.004 186.578 186.591 187.314 187.487 187.868C188.404 188.444 189.492 188.732 190.751 188.732C192.223 188.732 193.407 188.284 194.303 187.388C195.22 186.492 195.679 185.191 195.679 183.484V180.54C195.06 181.372 194.217 182.076 193.151 182.652C192.105 183.207 190.911 183.484 189.567 183.484C188.031 183.484 186.623 183.1 185.343 182.332C184.084 181.543 183.081 180.455 182.335 179.068C181.609 177.66 181.247 176.071 181.247 174.3C181.247 172.53 181.609 170.962 182.335 169.596C183.081 168.231 184.084 167.175 185.343 166.428C186.623 165.66 188.031 165.276 189.567 165.276ZM195.679 174.364C195.679 173.148 195.423 172.092 194.911 171.196C194.42 170.3 193.769 169.618 192.959 169.148C192.148 168.679 191.273 168.444 190.335 168.444C189.396 168.444 188.521 168.679 187.711 169.148C186.9 169.596 186.239 170.268 185.727 171.164C185.236 172.039 184.991 173.084 184.991 174.3C184.991 175.516 185.236 176.583 185.727 177.5C186.239 178.418 186.9 179.122 187.711 179.612C188.543 180.082 189.417 180.316 190.335 180.316C191.273 180.316 192.148 180.082 192.959 179.612C193.769 179.143 194.42 178.46 194.911 177.564C195.423 176.647 195.679 175.58 195.679 174.364Z" fill="#1D1D1D"/>
</svg>
