<svg width="282" height="193" viewBox="0 0 282 193" fill="none" xmlns="http://www.w3.org/2000/svg">
<path d="M141 75.1963C121.7 75.1963 106 59.4963 106 40.1963C106 20.8963 121.7 5.19629 141 5.19629C160.3 5.19629 176 20.8963 176 40.1963C176 59.4963 160.3 75.1963 141 75.1963ZM141 10.1963C124.45 10.1963 111 23.6463 111 40.1963C111 56.7463 124.45 70.1963 141 70.1963C157.55 70.1963 171 56.7463 171 40.1963C171 23.6463 157.55 10.1963 141 10.1963Z" fill="#0948B4"/>
<path d="M151 52.6963C150.55 52.6963 150.1 52.5963 149.7 52.3463L137.2 44.8463C136.831 44.6219 136.527 44.306 136.317 43.9293C136.107 43.5525 135.997 43.1277 136 42.6963V22.6963C136 21.2963 137.1 20.1963 138.5 20.1963C139.9 20.1963 141 21.2963 141 22.6963V41.2963L152.3 48.0463C152.765 48.3316 153.125 48.7608 153.325 49.2689C153.524 49.7771 153.553 50.3364 153.406 50.8621C153.259 51.3879 152.944 51.8514 152.51 52.1823C152.076 52.5133 151.546 52.6938 151 52.6963Z" fill="#0948B4"/>
<path d="M118.018 108.956V111.932H112.098V131.196H108.45V111.932H102.498V108.956H118.018ZM123.569 111.228C122.907 111.228 122.353 111.004 121.905 110.556C121.457 110.108 121.233 109.554 121.233 108.892C121.233 108.231 121.457 107.676 121.905 107.228C122.353 106.78 122.907 106.556 123.569 106.556C124.209 106.556 124.753 106.78 125.201 107.228C125.649 107.676 125.873 108.231 125.873 108.892C125.873 109.554 125.649 110.108 125.201 110.556C124.753 111.004 124.209 111.228 123.569 111.228ZM125.361 113.564V131.196H121.713V113.564H125.361ZM151.494 113.276C152.881 113.276 154.118 113.564 155.206 114.14C156.315 114.716 157.179 115.57 157.798 116.7C158.438 117.831 158.758 119.196 158.758 120.796V131.196H155.142V121.34C155.142 119.762 154.747 118.556 153.958 117.724C153.169 116.871 152.091 116.444 150.726 116.444C149.361 116.444 148.273 116.871 147.462 117.724C146.673 118.556 146.278 119.762 146.278 121.34V131.196H142.662V121.34C142.662 119.762 142.267 118.556 141.478 117.724C140.689 116.871 139.611 116.444 138.246 116.444C136.881 116.444 135.793 116.871 134.982 117.724C134.193 118.556 133.798 119.762 133.798 121.34V131.196H130.15V113.564H133.798V115.58C134.395 114.855 135.153 114.29 136.07 113.884C136.987 113.479 137.969 113.276 139.014 113.276C140.422 113.276 141.681 113.575 142.79 114.172C143.899 114.77 144.753 115.634 145.35 116.764C145.883 115.698 146.715 114.855 147.846 114.236C148.977 113.596 150.193 113.276 151.494 113.276ZM179.56 121.948C179.56 122.61 179.517 123.207 179.432 123.74H165.96C166.067 125.148 166.589 126.279 167.528 127.132C168.467 127.986 169.619 128.412 170.984 128.412C172.947 128.412 174.333 127.591 175.144 125.948H179.08C178.547 127.57 177.576 128.903 176.168 129.948C174.781 130.972 173.053 131.484 170.984 131.484C169.299 131.484 167.784 131.111 166.44 130.364C165.117 129.596 164.072 128.53 163.304 127.164C162.557 125.778 162.184 124.178 162.184 122.364C162.184 120.551 162.547 118.962 163.272 117.596C164.019 116.21 165.053 115.143 166.376 114.396C167.72 113.65 169.256 113.276 170.984 113.276C172.648 113.276 174.131 113.639 175.432 114.364C176.733 115.09 177.747 116.114 178.472 117.436C179.197 118.738 179.56 120.242 179.56 121.948ZM175.752 120.796C175.731 119.452 175.251 118.375 174.312 117.564C173.373 116.754 172.211 116.348 170.824 116.348C169.565 116.348 168.488 116.754 167.592 117.564C166.696 118.354 166.163 119.431 165.992 120.796H175.752ZM57.074 156.956V179.196H53.426V163.964L46.642 179.196H44.114L37.298 163.964V179.196H33.65V156.956H37.586L45.394 174.396L53.17 156.956H57.074ZM60.6528 170.3C60.6528 168.53 61.0154 166.962 61.7408 165.596C62.4874 164.231 63.4901 163.175 64.7488 162.428C66.0288 161.66 67.4368 161.276 68.9728 161.276C70.3594 161.276 71.5648 161.554 72.5888 162.108C73.6341 162.642 74.4661 163.314 75.0848 164.124V161.564H78.7648V179.196H75.0848V176.572C74.4661 177.404 73.6234 178.098 72.5568 178.652C71.4901 179.207 70.2741 179.484 68.9088 179.484C67.3941 179.484 66.0074 179.1 64.7488 178.332C63.4901 177.543 62.4874 176.455 61.7408 175.068C61.0154 173.66 60.6528 172.071 60.6528 170.3ZM75.0848 170.364C75.0848 169.148 74.8288 168.092 74.3168 167.196C73.8261 166.3 73.1754 165.618 72.3648 165.148C71.5541 164.679 70.6794 164.444 69.7408 164.444C68.8021 164.444 67.9274 164.679 67.1168 165.148C66.3061 165.596 65.6448 166.268 65.1328 167.164C64.6421 168.039 64.3968 169.084 64.3968 170.3C64.3968 171.516 64.6421 172.583 65.1328 173.5C65.6448 174.418 66.3061 175.122 67.1168 175.612C67.9488 176.082 68.8234 176.316 69.7408 176.316C70.6794 176.316 71.5541 176.082 72.3648 175.612C73.1754 175.143 73.8261 174.46 74.3168 173.564C74.8288 172.647 75.0848 171.58 75.0848 170.364ZM92.4523 161.276C93.8389 161.276 95.0763 161.564 96.1643 162.14C97.2736 162.716 98.1376 163.57 98.7563 164.7C99.3749 165.831 99.6843 167.196 99.6843 168.796V179.196H96.0683V169.34C96.0683 167.762 95.6736 166.556 94.8843 165.724C94.0949 164.871 93.0176 164.444 91.6523 164.444C90.2869 164.444 89.1989 164.871 88.3883 165.724C87.5989 166.556 87.2043 167.762 87.2043 169.34V179.196H83.5563V161.564H87.2043V163.58C87.8016 162.855 88.5589 162.29 89.4763 161.884C90.4149 161.479 91.4069 161.276 92.4523 161.276ZM103.122 170.3C103.122 168.53 103.484 166.962 104.21 165.596C104.956 164.231 105.959 163.175 107.218 162.428C108.498 161.66 109.906 161.276 111.442 161.276C112.828 161.276 114.034 161.554 115.058 162.108C116.103 162.642 116.935 163.314 117.554 164.124V161.564H121.234V179.196H117.554V176.572C116.935 177.404 116.092 178.098 115.026 178.652C113.959 179.207 112.743 179.484 111.378 179.484C109.863 179.484 108.476 179.1 107.218 178.332C105.959 177.543 104.956 176.455 104.21 175.068C103.484 173.66 103.122 172.071 103.122 170.3ZM117.554 170.364C117.554 169.148 117.298 168.092 116.786 167.196C116.295 166.3 115.644 165.618 114.834 165.148C114.023 164.679 113.148 164.444 112.21 164.444C111.271 164.444 110.396 164.679 109.586 165.148C108.775 165.596 108.114 166.268 107.602 167.164C107.111 168.039 106.866 169.084 106.866 170.3C106.866 171.516 107.111 172.583 107.602 173.5C108.114 174.418 108.775 175.122 109.586 175.612C110.418 176.082 111.292 176.316 112.21 176.316C113.148 176.316 114.023 176.082 114.834 175.612C115.644 175.143 116.295 174.46 116.786 173.564C117.298 172.647 117.554 171.58 117.554 170.364ZM133.129 161.276C134.494 161.276 135.7 161.554 136.745 162.108C137.812 162.642 138.644 163.314 139.241 164.124V161.564H142.921V179.484C142.921 181.106 142.58 182.546 141.897 183.804C141.214 185.084 140.222 186.087 138.921 186.812C137.641 187.538 136.105 187.9 134.313 187.9C131.924 187.9 129.94 187.335 128.361 186.204C126.782 185.095 125.886 183.58 125.673 181.66H129.289C129.566 182.578 130.153 183.314 131.049 183.868C131.966 184.444 133.054 184.732 134.313 184.732C135.785 184.732 136.969 184.284 137.865 183.388C138.782 182.492 139.241 181.191 139.241 179.484V176.54C138.622 177.372 137.78 178.076 136.713 178.652C135.668 179.207 134.473 179.484 133.129 179.484C131.593 179.484 130.185 179.1 128.905 178.332C127.646 177.543 126.644 176.455 125.897 175.068C125.172 173.66 124.809 172.071 124.809 170.3C124.809 168.53 125.172 166.962 125.897 165.596C126.644 164.231 127.646 163.175 128.905 162.428C130.185 161.66 131.593 161.276 133.129 161.276ZM139.241 170.364C139.241 169.148 138.985 168.092 138.473 167.196C137.982 166.3 137.332 165.618 136.521 165.148C135.71 164.679 134.836 164.444 133.897 164.444C132.958 164.444 132.084 164.679 131.273 165.148C130.462 165.596 129.801 166.268 129.289 167.164C128.798 168.039 128.553 169.084 128.553 170.3C128.553 171.516 128.798 172.583 129.289 173.5C129.801 174.418 130.462 175.122 131.273 175.612C132.105 176.082 132.98 176.316 133.897 176.316C134.836 176.316 135.71 176.082 136.521 175.612C137.332 175.143 137.982 174.46 138.473 173.564C138.985 172.647 139.241 171.58 139.241 170.364ZM163.873 169.948C163.873 170.61 163.83 171.207 163.745 171.74H150.273C150.379 173.148 150.902 174.279 151.841 175.132C152.779 175.986 153.931 176.412 155.297 176.412C157.259 176.412 158.646 175.591 159.457 173.948H163.392C162.859 175.57 161.889 176.903 160.481 177.948C159.094 178.972 157.366 179.484 155.297 179.484C153.611 179.484 152.097 179.111 150.753 178.364C149.43 177.596 148.385 176.53 147.617 175.164C146.87 173.778 146.497 172.178 146.497 170.364C146.497 168.551 146.859 166.962 147.585 165.596C148.331 164.21 149.366 163.143 150.689 162.396C152.033 161.65 153.569 161.276 155.297 161.276C156.961 161.276 158.443 161.639 159.745 162.364C161.046 163.09 162.059 164.114 162.785 165.436C163.51 166.738 163.873 168.242 163.873 169.948ZM160.065 168.796C160.043 167.452 159.563 166.375 158.625 165.564C157.686 164.754 156.523 164.348 155.137 164.348C153.878 164.348 152.801 164.754 151.905 165.564C151.009 166.354 150.475 167.431 150.305 168.796H160.065ZM188.807 161.276C190.193 161.276 191.431 161.564 192.519 162.14C193.628 162.716 194.492 163.57 195.111 164.7C195.751 165.831 196.071 167.196 196.071 168.796V179.196H192.455V169.34C192.455 167.762 192.06 166.556 191.271 165.724C190.481 164.871 189.404 164.444 188.039 164.444C186.673 164.444 185.585 164.871 184.775 165.724C183.985 166.556 183.591 167.762 183.591 169.34V179.196H179.975V169.34C179.975 167.762 179.58 166.556 178.791 165.724C178.001 164.871 176.924 164.444 175.559 164.444C174.193 164.444 173.105 164.871 172.295 165.724C171.505 166.556 171.111 167.762 171.111 169.34V179.196H167.463V161.564H171.111V163.58C171.708 162.855 172.465 162.29 173.383 161.884C174.3 161.479 175.281 161.276 176.327 161.276C177.735 161.276 178.993 161.575 180.103 162.172C181.212 162.77 182.065 163.634 182.663 164.764C183.196 163.698 184.028 162.855 185.159 162.236C186.289 161.596 187.505 161.276 188.807 161.276ZM216.873 169.948C216.873 170.61 216.83 171.207 216.745 171.74H203.273C203.379 173.148 203.902 174.279 204.841 175.132C205.779 175.986 206.931 176.412 208.297 176.412C210.259 176.412 211.646 175.591 212.457 173.948H216.392C215.859 175.57 214.889 176.903 213.481 177.948C212.094 178.972 210.366 179.484 208.297 179.484C206.611 179.484 205.097 179.111 203.753 178.364C202.43 177.596 201.385 176.53 200.617 175.164C199.87 173.778 199.497 172.178 199.497 170.364C199.497 168.551 199.859 166.962 200.585 165.596C201.331 164.21 202.366 163.143 203.689 162.396C205.033 161.65 206.569 161.276 208.297 161.276C209.961 161.276 211.443 161.639 212.745 162.364C214.046 163.09 215.059 164.114 215.785 165.436C216.51 166.738 216.873 168.242 216.873 169.948ZM213.065 168.796C213.043 167.452 212.563 166.375 211.625 165.564C210.686 164.754 209.523 164.348 208.137 164.348C206.878 164.348 205.801 164.754 204.905 165.564C204.009 166.354 203.475 167.431 203.305 168.796H213.065ZM229.359 161.276C230.745 161.276 231.983 161.564 233.071 162.14C234.18 162.716 235.044 163.57 235.663 164.7C236.281 165.831 236.591 167.196 236.591 168.796V179.196H232.975V169.34C232.975 167.762 232.58 166.556 231.791 165.724C231.001 164.871 229.924 164.444 228.559 164.444C227.193 164.444 226.105 164.871 225.295 165.724C224.505 166.556 224.111 167.762 224.111 169.34V179.196H220.463V161.564H224.111V163.58C224.708 162.855 225.465 162.29 226.383 161.884C227.321 161.479 228.313 161.276 229.359 161.276ZM245.5 164.54V174.3C245.5 174.962 245.649 175.442 245.948 175.74C246.268 176.018 246.801 176.156 247.548 176.156H249.788V179.196H246.908C245.265 179.196 244.006 178.812 243.132 178.044C242.257 177.276 241.82 176.028 241.82 174.3V164.54H239.74V161.564H241.82V157.18H245.5V161.564H249.788V164.54H245.5Z" fill="#1D1D1D"/>
</svg>
